<?xml version="1.0" encoding="UTF-8" standalone="no"?>
<!DOCTYPE svg PUBLIC "-//W3C//DTD SVG 1.1//EN"
 "http://www.w3.org/Graphics/SVG/1.1/DTD/svg11.dtd">
<!-- Generated by graphviz version 14.1.5 (20260411.2331)
 -->
<!-- Title: IELTSBoost Pages: 1 -->
<svg width="1277pt" height="718pt"
 viewBox="0.00 0.00 1277.00 718.00" xmlns="http://www.w3.org/2000/svg" xmlns:xlink="http://www.w3.org/1999/xlink">
<g id="graph0" class="graph" transform="scale(1 1) rotate(0) translate(4 714.25)">
<title>IELTSBoost</title>
<polygon fill="#fafafa" stroke="none" points="-4,4 -4,-714.25 1272.88,-714.25 1272.88,4 -4,4"/>
<text xml:space="preserve" text-anchor="middle" x="634.44" y="-691.05" font-family="Segoe UI" font-size="16.00" fill="#333333">IELTSBoost — AI Architecture &amp; API Flow</text>
<g id="clust1" class="cluster">
<title>cluster_api</title>
<path fill="#ffffff" stroke="#bbbbbb" stroke-dasharray="5,2" d="M297.53,-477C297.53,-477 1163.53,-477 1163.53,-477 1169.53,-477 1175.53,-483 1175.53,-489 1175.53,-489 1175.53,-544.25 1175.53,-544.25 1175.53,-550.25 1169.53,-556.25 1163.53,-556.25 1163.53,-556.25 297.53,-556.25 297.53,-556.25 291.53,-556.25 285.53,-550.25 285.53,-544.25 285.53,-544.25 285.53,-489 285.53,-489 285.53,-483 291.53,-477 297.53,-477"/>
<text xml:space="preserve" text-anchor="middle" x="730.53" y="-540.85" font-family="Segoe UI" font-size="12.00" fill="#666666">Next.js API Routes</text>
</g>
<g id="clust2" class="cluster">
<title>cluster_middleware</title>
<path fill="#ffffff" stroke="#bbbbbb" stroke-dasharray="5,2" d="M354.53,-190.75C354.53,-190.75 635.53,-190.75 635.53,-190.75 641.53,-190.75 647.53,-196.75 647.53,-202.75 647.53,-202.75 647.53,-258 647.53,-258 647.53,-264 641.53,-270 635.53,-270 635.53,-270 354.53,-270 354.53,-270 348.53,-270 342.53,-264 342.53,-258 342.53,-258 342.53,-202.75 342.53,-202.75 342.53,-196.75 348.53,-190.75 354.53,-190.75"/>
<text xml:space="preserve" text-anchor="middle" x="495.03" y="-254.6" font-family="Segoe UI" font-size="12.00" fill="#666666">Middleware</text>
</g>
<g id="clust3" class="cluster">
<title>cluster_anthropic</title>
<path fill="#c75c2e" stroke="#d4856a" d="M458.53,-313.5C458.53,-313.5 598.53,-313.5 598.53,-313.5 604.53,-313.5 610.53,-319.5 610.53,-325.5 610.53,-325.5 610.53,-408.75 610.53,-408.75 610.53,-414.75 604.53,-420.75 598.53,-420.75 598.53,-420.75 458.53,-420.75 458.53,-420.75 452.53,-420.75 446.53,-414.75 446.53,-408.75 446.53,-408.75 446.53,-325.5 446.53,-325.5 446.53,-319.5 452.53,-313.5 458.53,-313.5"/>
<text xml:space="preserve" text-anchor="middle" x="528.53" y="-405.35" font-family="Segoe UI" font-size="12.00" fill="#ffffff">Anthropic</text>
</g>
<g id="clust4" class="cluster">
<title>cluster_openai</title>
<path fill="#3b7a3b" stroke="#6e9e6e" d="M169.53,-313.5C169.53,-313.5 362.53,-313.5 362.53,-313.5 368.53,-313.5 374.53,-319.5 374.53,-325.5 374.53,-325.5 374.53,-408.75 374.53,-408.75 374.53,-414.75 368.53,-420.75 362.53,-420.75 362.53,-420.75 169.53,-420.75 169.53,-420.75 163.53,-420.75 157.53,-414.75 157.53,-408.75 157.53,-408.75 157.53,-325.5 157.53,-325.5 157.53,-319.5 163.53,-313.5 169.53,-313.5"/>
<text xml:space="preserve" text-anchor="middle" x="266.03" y="-405.35" font-family="Segoe UI" font-size="12.00" fill="#ffffff">OpenAI</text>
</g>
<g id="clust5" class="cluster">
<title>cluster_supabase</title>
<path fill="#1a8a4e" stroke="#4a9e6e" d="M719.53,-8C719.53,-8 935.53,-8 935.53,-8 941.53,-8 947.53,-14 947.53,-20 947.53,-20 947.53,-135.25 947.53,-135.25 947.53,-141.25 941.53,-147.25 935.53,-147.25 935.53,-147.25 719.53,-147.25 719.53,-147.25 713.53,-147.25 707.53,-141.25 707.53,-135.25 707.53,-135.25 707.53,-20 707.53,-20 707.53,-14 713.53,-8 719.53,-8"/>
<text xml:space="preserve" text-anchor="middle" x="827.53" y="-131.85" font-family="Segoe UI" font-size="12.00" fill="#ffffff">Supabase (PostgreSQL + Storage)</text>
</g>
<!-- user -->
<g id="node1" class="node">
<title>user</title>
<path fill="#f5f5f5" stroke="#999999" stroke-width="2" d="M502.9,-653.25C502.9,-653.25 420.15,-653.25 420.15,-653.25 414.15,-653.25 408.15,-647.25 408.15,-641.25 408.15,-641.25 408.15,-627.25 408.15,-627.25 408.15,-621.25 414.15,-615.25 420.15,-615.25 420.15,-615.25 502.9,-615.25 502.9,-615.25 508.9,-615.25 514.9,-621.25 514.9,-627.25 514.9,-627.25 514.9,-641.25 514.9,-641.25 514.9,-647.25 508.9,-653.25 502.9,-653.25"/>
<text xml:space="preserve" text-anchor="middle" x="461.53" y="-638.8" font-family="Segoe UI" font-size="11.00" fill="#333333">User</text>
<text xml:space="preserve" text-anchor="middle" x="461.53" y="-623.8" font-family="Segoe UI" font-size="11.00" fill="#333333">(Browser / Mobile)</text>
</g>
<!-- api_score -->
<g id="node2" class="node">
<title>api_score</title>
<polygon fill="#fff8f0" stroke="#e0e0e0" points="785.65,-523 683.4,-523 683.4,-485 785.65,-485 785.65,-523"/>
<text xml:space="preserve" text-anchor="middle" x="734.53" y="-508.55" font-family="Segoe UI" font-size="11.00" fill="#8b4513">/api/score</text>
<text xml:space="preserve" text-anchor="middle" x="734.53" y="-493.55" font-family="Segoe UI" font-size="11.00" fill="#8b4513">Writing Feedback</text>
</g>
<!-- user&#45;&gt;api_score -->
<g id="edge1" class="edge">
<title>user&#45;&gt;api_score</title>
<path fill="none" stroke="#8b4513" stroke-width="2" d="M515.88,-622.95C547.78,-615.84 588.4,-604.92 622.53,-589.75 647.65,-578.59 652.47,-572.66 674.53,-556.25 685.05,-548.42 696.09,-539.29 705.79,-530.91"/>
<polygon fill="#8b4513" stroke="#8b4513" stroke-width="2" points="706.77,-534.71 711.99,-525.49 702.16,-529.44 706.77,-534.71"/>
<text xml:space="preserve" text-anchor="middle" x="697.19" y="-581.2" font-family="Segoe UI" font-size="9.00">Submit essay</text>
<text xml:space="preserve" text-anchor="middle" x="697.19" y="-568.45" font-family="Segoe UI" font-size="9.00">(text/image/PDF)</text>
</g>
<!-- api_speaking -->
<g id="node3" class="node">
<title>api_speaking</title>
<polygon fill="#fff8f0" stroke="#e0e0e0" points="913.78,-523 803.28,-523 803.28,-485 913.78,-485 913.78,-523"/>
<text xml:space="preserve" text-anchor="middle" x="858.53" y="-508.55" font-family="Segoe UI" font-size="11.00" fill="#8b4513">/api/speaking</text>
<text xml:space="preserve" text-anchor="middle" x="858.53" y="-493.55" font-family="Segoe UI" font-size="11.00" fill="#8b4513">Speaking Feedback</text>
</g>
<!-- user&#45;&gt;api_speaking -->
<g id="edge2" class="edge">
<title>user&#45;&gt;api_speaking</title>
<path fill="none" stroke="#8b4513" stroke-width="2" d="M515.7,-630.38C572,-626.08 662,-615.51 735.53,-589.75 771.77,-577.06 807.24,-550.69 830.7,-530.72"/>
<polygon fill="#8b4513" stroke="#8b4513" stroke-width="2" points="831.56,-534.61 836.8,-525.4 826.96,-529.33 831.56,-534.61"/>
<text xml:space="preserve" text-anchor="middle" x="815.54" y="-581.2" font-family="Segoe UI" font-size="9.00">Submit speaking</text>
<text xml:space="preserve" text-anchor="middle" x="815.54" y="-568.45" font-family="Segoe UI" font-size="9.00">response</text>
</g>
<!-- api_reading -->
<g id="node4" class="node">
<title>api_reading</title>
<polygon fill="#fff8f0" stroke="#e0e0e0" points="1027.65,-523 931.4,-523 931.4,-485 1027.65,-485 1027.65,-523"/>
<text xml:space="preserve" text-anchor="middle" x="979.53" y="-508.55" font-family="Segoe UI" font-size="11.00" fill="#8b4513">/api/reading</text>
<text xml:space="preserve" text-anchor="middle" x="979.53" y="-493.55" font-family="Segoe UI" font-size="11.00" fill="#8b4513">Reading Scoring</text>
</g>
<!-- user&#45;&gt;api_reading -->
<g id="edge3" class="edge">
<title>user&#45;&gt;api_reading</title>
<path fill="none" stroke="#8b4513" stroke-width="2" d="M515.75,-632.91C592.27,-631.15 735.64,-623.18 852.53,-589.75 885.69,-580.27 893.86,-575.42 922.53,-556.25 933.54,-548.89 944.6,-539.5 954.02,-530.78"/>
<polygon fill="#8b4513" stroke="#8b4513" stroke-width="2" points="955.13,-534.56 959.96,-525.12 950.3,-529.49 955.13,-534.56"/>
<text xml:space="preserve" text-anchor="middle" x="940.15" y="-581.2" font-family="Segoe UI" font-size="9.00">Submit reading</text>
<text xml:space="preserve" text-anchor="middle" x="940.15" y="-568.45" font-family="Segoe UI" font-size="9.00">answers</text>
</g>
<!-- api_ocr -->
<g id="node5" class="node">
<title>api_ocr</title>
<polygon fill="#fff8f0" stroke="#e0e0e0" points="511.9,-523 411.15,-523 411.15,-485 511.9,-485 511.9,-523"/>
<text xml:space="preserve" text-anchor="middle" x="461.53" y="-508.55" font-family="Segoe UI" font-size="11.00" fill="#8b4513">/api/ocr</text>
<text xml:space="preserve" text-anchor="middle" x="461.53" y="-493.55" font-family="Segoe UI" font-size="11.00" fill="#8b4513">Handwriting OCR</text>
</g>
<!-- user&#45;&gt;api_ocr -->
<g id="edge4" class="edge">
<title>user&#45;&gt;api_ocr</title>
<path fill="none" stroke="#8b4513" stroke-width="2" d="M461.53,-614.33C461.53,-593.34 461.53,-559.23 461.53,-534.68"/>
<polygon fill="#8b4513" stroke="#8b4513" stroke-width="2" points="465.03,-536.2 461.53,-526.2 458.03,-536.2 465.03,-536.2"/>
<text xml:space="preserve" text-anchor="middle" x="500.9" y="-581.2" font-family="Segoe UI" font-size="9.00">Upload handwritten</text>
<text xml:space="preserve" text-anchor="middle" x="500.9" y="-568.45" font-family="Segoe UI" font-size="9.00">essay image</text>
</g>
<!-- api_transcribe -->
<g id="node6" class="node">
<title>api_transcribe</title>
<polygon fill="#f0f8ff" stroke="#e0e0e0" points="665.53,-523 529.53,-523 529.53,-485 665.53,-485 665.53,-523"/>
<text xml:space="preserve" text-anchor="middle" x="597.53" y="-508.55" font-family="Segoe UI" font-size="11.00" fill="#1a4a6e">/api/speaking/transcribe</text>
<text xml:space="preserve" text-anchor="middle" x="597.53" y="-493.55" font-family="Segoe UI" font-size="11.00" fill="#1a4a6e">Audio → Text</text>
</g>
<!-- user&#45;&gt;api_transcribe -->
<g id="edge5" class="edge">
<title>user&#45;&gt;api_transcribe</title>
<path fill="none" stroke="#1a4a6e" stroke-width="2" d="M507.85,-614.43C520.64,-607.85 533.91,-599.59 544.53,-589.75 561.69,-573.85 575.47,-551.2 584.67,-533.31"/>
<polygon fill="#1a4a6e" stroke="#1a4a6e" stroke-width="2" points="587.06,-536.39 588.34,-525.87 580.78,-533.3 587.06,-536.39"/>
<text xml:space="preserve" text-anchor="middle" x="592.02" y="-574.83" font-family="Segoe UI" font-size="9.00">Record audio</text>
</g>
<!-- api_tts -->
<g id="node7" class="node">
<title>api_tts</title>
<polygon fill="#f0f8ff" stroke="#e0e0e0" points="393.53,-523 293.53,-523 293.53,-485 393.53,-485 393.53,-523"/>
<text xml:space="preserve" text-anchor="middle" x="343.53" y="-508.55" font-family="Segoe UI" font-size="11.00" fill="#1a4a6e">/api/speaking/tts</text>
<text xml:space="preserve" text-anchor="middle" x="343.53" y="-493.55" font-family="Segoe UI" font-size="11.00" fill="#1a4a6e">Text → Speech</text>
</g>
<!-- user&#45;&gt;api_tts -->
<g id="edge6" class="edge">
<title>user&#45;&gt;api_tts</title>
<path fill="none" stroke="#1a4a6e" stroke-width="2" d="M425.88,-614.3C415.03,-607.48 403.59,-599.12 394.53,-589.75 378.72,-573.39 365.61,-551.26 356.64,-533.72"/>
<polygon fill="#1a4a6e" stroke="#1a4a6e" stroke-width="2" points="360.5,-533.63 352.95,-526.2 354.22,-536.72 360.5,-533.63"/>
<text xml:space="preserve" text-anchor="middle" x="426.03" y="-581.2" font-family="Segoe UI" font-size="9.00">Request prompt</text>
<text xml:space="preserve" text-anchor="middle" x="426.03" y="-568.45" font-family="Segoe UI" font-size="9.00">audio</text>
</g>
<!-- usage_check -->
<g id="node9" class="node">
<title>usage_check</title>
<path fill="#fefce8" stroke="#e0e0e0" d="M627.15,-236.75C627.15,-236.75 509.9,-236.75 509.9,-236.75 503.9,-236.75 497.9,-230.75 497.9,-224.75 497.9,-224.75 497.9,-210.75 497.9,-210.75 497.9,-204.75 503.9,-198.75 509.9,-198.75 509.9,-198.75 627.15,-198.75 627.15,-198.75 633.15,-198.75 639.15,-204.75 639.15,-210.75 639.15,-210.75 639.15,-224.75 639.15,-224.75 639.15,-230.75 633.15,-236.75 627.15,-236.75"/>
<text xml:space="preserve" text-anchor="middle" x="568.53" y="-222.3" font-family="Segoe UI" font-size="11.00" fill="#7c6f00">Usage Limiter</text>
<text xml:space="preserve" text-anchor="middle" x="568.53" y="-207.3" font-family="Segoe UI" font-size="11.00" fill="#7c6f00">3/day free · unlimited Pro</text>
</g>
<!-- api_score&#45;&gt;usage_check -->
<g id="edge7" class="edge">
<title>api_score&#45;&gt;usage_check</title>
<path fill="none" stroke="#888888" stroke-dasharray="5,2" d="M697.8,-484.57C690.27,-481.52 682.28,-478.77 674.53,-477 661.19,-473.95 438,-476.87 428.53,-467 369.47,-405.49 395.16,-331.54 461.53,-278 471.6,-269.87 477.75,-275.36 489.53,-270 505.22,-262.86 521.38,-252.92 534.97,-243.68"/>
<polygon fill="#888888" stroke="#888888" points="536.92,-246.59 543.12,-238 532.91,-240.84 536.92,-246.59"/>
</g>
<!-- claude -->
<g id="node11" class="node">
<title>claude</title>
<path fill="#d4856a" stroke="#e0e0e0" stroke-width="0" d="M590.9,-387.5C590.9,-387.5 466.15,-387.5 466.15,-387.5 460.15,-387.5 454.15,-381.5 454.15,-375.5 454.15,-375.5 454.15,-333.5 454.15,-333.5 454.15,-327.5 460.15,-321.5 466.15,-321.5 466.15,-321.5 590.9,-321.5 590.9,-321.5 596.9,-321.5 602.9,-327.5 602.9,-333.5 602.9,-333.5 602.9,-375.5 602.9,-375.5 602.9,-381.5 596.9,-387.5 590.9,-387.5"/>
<text xml:space="preserve" text-anchor="middle" x="528.53" y="-373.05" font-family="Segoe UI" font-size="11.00" fill="#ffffff">Claude Sonnet 4</text>
<text xml:space="preserve" text-anchor="middle" x="528.53" y="-358.05" font-family="Segoe UI" font-size="11.00" fill="#ffffff">claude&#45;sonnet&#45;4&#45;20250514</text>
<text xml:space="preserve" text-anchor="middle" x="528.53" y="-330.05" font-family="Segoe UI" font-size="11.00" fill="#ffffff">$3/M in · $15/M out</text>
</g>
<!-- api_score&#45;&gt;claude -->
<g id="edge10" class="edge">
<title>api_score&#45;&gt;claude</title>
<path fill="none" stroke="#c75c2e" stroke-width="2" d="M697.09,-484.57C689.76,-481.59 682.02,-478.88 674.53,-477 648.36,-470.44 573.88,-484.72 553.53,-467 534.37,-450.32 528.12,-422.43 526.66,-398.72"/>
<polygon fill="#c75c2e" stroke="#c75c2e" stroke-width="2" points="530.22,-400.39 526.39,-390.51 523.22,-400.62 530.22,-400.39"/>
<text xml:space="preserve" text-anchor="middle" x="588.03" y="-458.45" font-family="Segoe UI" font-size="9.00">Essay + rubric</text>
<text xml:space="preserve" text-anchor="middle" x="588.03" y="-445.7" font-family="Segoe UI" font-size="9.00">→ JSON feedback</text>
<text xml:space="preserve" text-anchor="middle" x="588.03" y="-432.95" font-family="Segoe UI" font-size="9.00">max 4000 tokens</text>
</g>
<!-- db -->
<g id="node14" class="node">
<title>db</title>
<path fill="#4a9e6e" stroke="#e0e0e0" stroke-width="0" d="M927.78,-114C927.78,-114 727.28,-114 727.28,-114 721.28,-114 715.28,-108 715.28,-102 715.28,-102 715.28,-28 715.28,-28 715.28,-22 721.28,-16 727.28,-16 727.28,-16 927.78,-16 927.78,-16 933.78,-16 939.78,-22 939.78,-28 939.78,-28 939.78,-102 939.78,-102 939.78,-108 933.78,-114 927.78,-114"/>
<text xml:space="preserve" text-anchor="middle" x="827.53" y="-99.55" font-family="Segoe UI" font-size="11.00" fill="#ffffff">Database</text>
<text xml:space="preserve" text-anchor="middle" x="827.53" y="-84.55" font-family="Segoe UI" font-size="11.00" fill="#ffffff">writing_submissions · writing_feedback</text>
<text xml:space="preserve" text-anchor="middle" x="827.53" y="-69.55" font-family="Segoe UI" font-size="11.00" fill="#ffffff">speaking_submissions · speaking_feedback</text>
<text xml:space="preserve" text-anchor="middle" x="827.53" y="-54.55" font-family="Segoe UI" font-size="11.00" fill="#ffffff">reading_submissions · reading_feedback</text>
<text xml:space="preserve" text-anchor="middle" x="827.53" y="-39.55" font-family="Segoe UI" font-size="11.00" fill="#ffffff">api_usage_log · usage_tracking</text>
<text xml:space="preserve" text-anchor="middle" x="827.53" y="-24.55" font-family="Segoe UI" font-size="11.00" fill="#ffffff">user_settings · feedback</text>
</g>
<!-- api_score&#45;&gt;db -->
<g id="edge22" class="edge">
<title>api_score&#45;&gt;db</title>
<path fill="none" stroke="#1a8a4e" d="M770.01,-484.69C776.47,-479.79 782.45,-473.9 786.53,-467 819.83,-410.62 826.36,-222.38 827.45,-125.19"/>
<polygon fill="#1a8a4e" stroke="#1a8a4e" points="830.95,-125.35 827.55,-115.32 823.95,-125.28 830.95,-125.35"/>
<text xml:space="preserve" text-anchor="middle" x="861.33" y="-294.95" font-family="Segoe UI" font-size="9.00">writing_submissions</text>
<text xml:space="preserve" text-anchor="middle" x="861.33" y="-282.2" font-family="Segoe UI" font-size="9.00">writing_feedback</text>
</g>
<!-- api_speaking&#45;&gt;usage_check -->
<g id="edge8" class="edge">
<title>api_speaking&#45;&gt;usage_check</title>
<path fill="none" stroke="#888888" stroke-dasharray="5,2" d="M855.33,-484.55C846.95,-441.82 820.37,-335.35 755.53,-278 726.4,-252.24 686.05,-237.67 650.29,-229.43"/>
<polygon fill="#888888" stroke="#888888" points="651.35,-226.08 640.83,-227.4 649.87,-232.92 651.35,-226.08"/>
</g>
<!-- api_speaking&#45;&gt;claude -->
<g id="edge11" class="edge">
<title>api_speaking&#45;&gt;claude</title>
<path fill="none" stroke="#c75c2e" stroke-width="2" d="M817.77,-484.54C810.16,-481.65 802.2,-478.97 794.53,-477 757.47,-467.49 745.16,-479.57 709.03,-467 660.97,-450.28 612.21,-419.13 577.51,-394"/>
<polygon fill="#c75c2e" stroke="#c75c2e" stroke-width="2" points="581.12,-392.31 570.99,-389.21 576.98,-397.95 581.12,-392.31"/>
<text xml:space="preserve" text-anchor="middle" x="766.78" y="-458.45" font-family="Segoe UI" font-size="9.00">Response + examiner prompt</text>
<text xml:space="preserve" text-anchor="middle" x="766.78" y="-445.7" font-family="Segoe UI" font-size="9.00">→ band scores</text>
<text xml:space="preserve" text-anchor="middle" x="766.78" y="-432.95" font-family="Segoe UI" font-size="9.00">max 1500 tokens</text>
</g>
<!-- api_speaking&#45;&gt;db -->
<g id="edge23" class="edge">
<title>api_speaking&#45;&gt;db</title>
<path fill="none" stroke="#1a8a4e" d="M863.17,-484.73C875.46,-436.31 907.96,-308.1 908.53,-303.5 909.92,-292.25 910.59,-289.15 908.53,-278 898.54,-223.89 875.34,-165.72 856.32,-124.02"/>
<polygon fill="#1a8a4e" stroke="#1a8a4e" points="859.6,-122.77 852.22,-115.17 853.25,-125.71 859.6,-122.77"/>
<text xml:space="preserve" text-anchor="middle" x="953.33" y="-294.95" font-family="Segoe UI" font-size="9.00">speaking_submissions</text>
<text xml:space="preserve" text-anchor="middle" x="953.33" y="-282.2" font-family="Segoe UI" font-size="9.00">speaking_feedback</text>
</g>
<!-- api_reading&#45;&gt;usage_check -->
<g id="edge9" class="edge">
<title>api_reading&#45;&gt;usage_check</title>
<path fill="none" stroke="#888888" stroke-dasharray="5,2" d="M993.26,-484.85C996.64,-479.4 999.78,-473.2 1001.53,-467 1006.13,-450.64 1009.59,-443.72 1001.53,-428.75 957.35,-346.76 906.18,-361.76 826.53,-313.5 818.7,-308.76 815.96,-308.84 808.53,-303.5 794.86,-293.68 795.25,-286.15 780.53,-278 740.41,-255.79 691.32,-241.38 650.49,-232.34"/>
<polygon fill="#888888" stroke="#888888" points="651.47,-228.97 640.96,-230.31 650,-235.82 651.47,-228.97"/>
</g>
<!-- api_reading&#45;&gt;claude -->
<g id="edge12" class="edge">
<title>api_reading&#45;&gt;claude</title>
<path fill="none" stroke="#c75c2e" stroke-width="2" d="M939.78,-484.56C934.01,-481.97 928.13,-479.39 922.53,-477 911.42,-472.27 908.19,-472.17 897.28,-467 865.68,-452.03 861.08,-441.51 828.53,-428.75 758.4,-401.26 674.88,-381.88 613.79,-369.99"/>
<polygon fill="#c75c2e" stroke="#c75c2e" stroke-width="2" points="616.11,-366.87 605.63,-368.42 614.79,-373.74 616.11,-366.87"/>
<text xml:space="preserve" text-anchor="middle" x="949.4" y="-458.45" font-family="Segoe UI" font-size="9.00">Fill&#45;in answers only</text>
<text xml:space="preserve" text-anchor="middle" x="949.4" y="-445.7" font-family="Segoe UI" font-size="9.00">→ synonym&#45;aware scoring</text>
<text xml:space="preserve" text-anchor="middle" x="949.4" y="-432.95" font-family="Segoe UI" font-size="9.00">max 800 tokens</text>
</g>
<!-- api_reading&#45;&gt;db -->
<g id="edge24" class="edge">
<title>api_reading&#45;&gt;db</title>
<path fill="none" stroke="#1a8a4e" d="M1004.64,-484.82C1009.87,-479.7 1014.66,-473.68 1017.53,-467 1034.17,-428.32 1041.94,-376.4 1000.53,-278 975.22,-217.86 927.27,-161.23 888.26,-121.66"/>
<polygon fill="#1a8a4e" stroke="#1a8a4e" points="891.2,-119.65 881.66,-115.04 886.25,-124.59 891.2,-119.65"/>
<text xml:space="preserve" text-anchor="middle" x="1050.88" y="-294.95" font-family="Segoe UI" font-size="9.00">reading_submissions</text>
<text xml:space="preserve" text-anchor="middle" x="1050.88" y="-282.2" font-family="Segoe UI" font-size="9.00">reading_feedback</text>
</g>
<!-- deterministic -->
<g id="node16" class="node">
<title>deterministic</title>
<path fill="#e8e8e8" stroke="#e0e0e0" d="M1196.03,-381C1196.03,-381 1081.03,-381 1081.03,-381 1075.03,-381 1069.03,-375 1069.03,-369 1069.03,-369 1069.03,-340 1069.03,-340 1069.03,-334 1075.03,-328 1081.03,-328 1081.03,-328 1196.03,-328 1196.03,-328 1202.03,-328 1208.03,-334 1208.03,-340 1208.03,-340 1208.03,-369 1208.03,-369 1208.03,-375 1202.03,-381 1196.03,-381"/>
<text xml:space="preserve" text-anchor="middle" x="1138.53" y="-366.55" font-family="Segoe UI" font-size="11.00" fill="#555555">Deterministic Scorer</text>
<text xml:space="preserve" text-anchor="middle" x="1138.53" y="-351.55" font-family="Segoe UI" font-size="11.00" fill="#555555">MCQ · T/F/NG · Matching</text>
<text xml:space="preserve" text-anchor="middle" x="1138.53" y="-336.55" font-family="Segoe UI" font-size="11.00" fill="#555555">(no AI needed)</text>
</g>
<!-- api_reading&#45;&gt;deterministic -->
<g id="edge13" class="edge">
<title>api_reading&#45;&gt;deterministic</title>
<path fill="none" stroke="#888888" stroke-dasharray="5,2" d="M1019.8,-484.66C1035.86,-477.16 1051.32,-469.63 1054.53,-467 1080.45,-445.77 1102.87,-414.95 1118.01,-391.09"/>
<polygon fill="#888888" stroke="#888888" points="1120.97,-392.97 1123.25,-382.63 1115.01,-389.29 1120.97,-392.97"/>
<text xml:space="preserve" text-anchor="middle" x="1117.99" y="-452.07" font-family="Segoe UI" font-size="9.00">MCQ / T&#45;F&#45;NG</text>
<text xml:space="preserve" text-anchor="middle" x="1117.99" y="-439.32" font-family="Segoe UI" font-size="9.00">→ exact match</text>
</g>
<!-- api_ocr&#45;&gt;claude -->
<g id="edge14" class="edge">
<title>api_ocr&#45;&gt;claude</title>
<path fill="none" stroke="#c75c2e" stroke-width="2" d="M446.31,-484.64C442.72,-479.27 439.4,-473.18 437.53,-467 432.6,-450.73 430.19,-444.08 437.53,-428.75 443.81,-415.63 453.71,-404.11 464.72,-394.33"/>
<polygon fill="#c75c2e" stroke="#c75c2e" stroke-width="2" points="465.53,-398.21 470.98,-389.12 461.05,-392.83 465.53,-398.21"/>
<text xml:space="preserve" text-anchor="middle" x="484.03" y="-458.45" font-family="Segoe UI" font-size="9.00">Image (base64) + vision</text>
<text xml:space="preserve" text-anchor="middle" x="484.03" y="-445.7" font-family="Segoe UI" font-size="9.00">→ extracted text</text>
<text xml:space="preserve" text-anchor="middle" x="484.03" y="-432.95" font-family="Segoe UI" font-size="9.00">max 4000 tokens</text>
</g>
<!-- whisper -->
<g id="node12" class="node">
<title>whisper</title>
<path fill="#6e9e6e" stroke="#e0e0e0" stroke-width="0" d="M354.03,-387.5C354.03,-387.5 287.03,-387.5 287.03,-387.5 281.03,-387.5 275.03,-381.5 275.03,-375.5 275.03,-375.5 275.03,-333.5 275.03,-333.5 275.03,-327.5 281.03,-321.5 287.03,-321.5 287.03,-321.5 354.03,-321.5 354.03,-321.5 360.03,-321.5 366.03,-327.5 366.03,-333.5 366.03,-333.5 366.03,-375.5 366.03,-375.5 366.03,-381.5 360.03,-387.5 354.03,-387.5"/>
<text xml:space="preserve" text-anchor="middle" x="320.53" y="-373.05" font-family="Segoe UI" font-size="11.00" fill="#ffffff">Whisper&#45;1</text>
<text xml:space="preserve" text-anchor="middle" x="320.53" y="-358.05" font-family="Segoe UI" font-size="11.00" fill="#ffffff">Speech&#45;to&#45;Text</text>
<text xml:space="preserve" text-anchor="middle" x="320.53" y="-330.05" font-family="Segoe UI" font-size="11.00" fill="#ffffff">~$0.006/min</text>
</g>
<!-- api_transcribe&#45;&gt;whisper -->
<g id="edge15" class="edge">
<title>api_transcribe&#45;&gt;whisper</title>
<path fill="none" stroke="#3b7a3b" stroke-width="2" d="M549.61,-484.54C540.1,-481.53 530.09,-478.81 520.53,-477 497.68,-472.68 327.57,-483.83 311.53,-467 294.47,-449.1 296.6,-421.42 303.06,-398.12"/>
<polygon fill="#3b7a3b" stroke="#3b7a3b" stroke-width="2" points="305.86,-400.91 305.5,-390.33 299.18,-398.83 305.86,-400.91"/>
<text xml:space="preserve" text-anchor="middle" x="350.53" y="-452.07" font-family="Segoe UI" font-size="9.00">Audio file</text>
<text xml:space="preserve" text-anchor="middle" x="350.53" y="-439.32" font-family="Segoe UI" font-size="9.00">→ English transcript</text>
</g>
<!-- api_transcribe&#45;&gt;db -->
<g id="edge25" class="edge">
<title>api_transcribe&#45;&gt;db</title>
<path fill="none" stroke="#1a8a4e" d="M647.21,-484.52C656.21,-481.66 665.58,-479 674.53,-477 693.52,-472.75 748.58,-481.53 761.53,-467 818.28,-403.35 710.05,-361.24 728.53,-278 740.77,-222.86 768.91,-165.08 792.08,-123.8"/>
<polygon fill="#1a8a4e" stroke="#1a8a4e" points="795.04,-125.67 796.95,-115.25 788.96,-122.2 795.04,-125.67"/>
<text xml:space="preserve" text-anchor="middle" x="772.03" y="-294.95" font-family="Segoe UI" font-size="9.00">speaking_submissions</text>
<text xml:space="preserve" text-anchor="middle" x="772.03" y="-282.2" font-family="Segoe UI" font-size="9.00">(draft)</text>
</g>
<!-- tts -->
<g id="node13" class="node">
<title>tts</title>
<path fill="#6e9e6e" stroke="#e0e0e0" stroke-width="0" d="M245.03,-387.5C245.03,-387.5 178.03,-387.5 178.03,-387.5 172.03,-387.5 166.03,-381.5 166.03,-375.5 166.03,-375.5 166.03,-333.5 166.03,-333.5 166.03,-327.5 172.03,-321.5 178.03,-321.5 178.03,-321.5 245.03,-321.5 245.03,-321.5 251.03,-321.5 257.03,-327.5 257.03,-333.5 257.03,-333.5 257.03,-375.5 257.03,-375.5 257.03,-381.5 251.03,-387.5 245.03,-387.5"/>
<text xml:space="preserve" text-anchor="middle" x="211.53" y="-373.05" font-family="Segoe UI" font-size="11.00" fill="#ffffff">TTS&#45;1 (Nova)</text>
<text xml:space="preserve" text-anchor="middle" x="211.53" y="-358.05" font-family="Segoe UI" font-size="11.00" fill="#ffffff">Text&#45;to&#45;Speech</text>
<text xml:space="preserve" text-anchor="middle" x="211.53" y="-330.05" font-family="Segoe UI" font-size="11.00" fill="#ffffff">$15/M chars</text>
</g>
<!-- api_tts&#45;&gt;tts -->
<g id="edge16" class="edge">
<title>api_tts&#45;&gt;tts</title>
<path fill="none" stroke="#3b7a3b" stroke-width="2" d="M301.24,-484.53C294.07,-481.78 286.65,-479.14 279.53,-477 258.04,-470.53 245.62,-483.15 230.03,-467 212.83,-449.19 208.09,-421.85 207.71,-398.7"/>
<polygon fill="#3b7a3b" stroke="#3b7a3b" stroke-width="2" points="211.19,-400.46 207.81,-390.42 204.19,-400.37 211.19,-400.46"/>
<text xml:space="preserve" text-anchor="middle" x="259.28" y="-452.07" font-family="Segoe UI" font-size="9.00">Text</text>
<text xml:space="preserve" text-anchor="middle" x="259.28" y="-439.32" font-family="Segoe UI" font-size="9.00">→ audio/mpeg</text>
</g>
<!-- api_stripe -->
<g id="node8" class="node">
<title>api_stripe</title>
<polygon fill="#f5f0ff" stroke="#e0e0e0" points="1167.78,-523 1045.28,-523 1045.28,-485 1167.78,-485 1167.78,-523"/>
<text xml:space="preserve" text-anchor="middle" x="1106.53" y="-508.55" font-family="Segoe UI" font-size="11.00" fill="#4a1a6e">/api/webhooks/stripe</text>
<text xml:space="preserve" text-anchor="middle" x="1106.53" y="-493.55" font-family="Segoe UI" font-size="11.00" fill="#4a1a6e">Subscription Events</text>
</g>
<!-- api_stripe&#45;&gt;db -->
<g id="edge27" class="edge">
<title>api_stripe&#45;&gt;db</title>
<path fill="none" stroke="#1a8a4e" d="M1147.72,-484.63C1172.89,-470.96 1202.96,-449.67 1217.53,-420.75 1238.97,-378.18 1240.49,-355.27 1217.53,-313.5 1161.08,-210.82 1042.01,-144.72 950.2,-106.9"/>
<polygon fill="#1a8a4e" stroke="#1a8a4e" points="951.7,-103.73 941.12,-103.22 949.07,-110.22 951.7,-103.73"/>
<text xml:space="preserve" text-anchor="middle" x="1239.63" y="-294.95" font-family="Segoe UI" font-size="9.00">Update plan</text>
<text xml:space="preserve" text-anchor="middle" x="1239.63" y="-282.2" font-family="Segoe UI" font-size="9.00">&amp; subscription</text>
</g>
<!-- usage_check&#45;&gt;db -->
<g id="edge21" class="edge">
<title>usage_check&#45;&gt;db</title>
<path fill="none" stroke="#888888" stroke-dasharray="5,2" d="M572.13,-198.4C575.66,-184.86 582.31,-166.85 594.28,-155.25 624.58,-125.88 665.55,-105.94 704.71,-92.51"/>
<polygon fill="#888888" stroke="#888888" points="705.58,-95.9 713.98,-89.45 703.39,-89.26 705.58,-95.9"/>
<text xml:space="preserve" text-anchor="middle" x="623.9" y="-172.2" font-family="Segoe UI" font-size="9.00">usage_tracking</text>
<text xml:space="preserve" text-anchor="middle" x="623.9" y="-159.45" font-family="Segoe UI" font-size="9.00">user_settings</text>
</g>
<!-- api_logger -->
<g id="node10" class="node">
<title>api_logger</title>
<path fill="#fefce8" stroke="#e0e0e0" d="M468.15,-236.75C468.15,-236.75 362.9,-236.75 362.9,-236.75 356.9,-236.75 350.9,-230.75 350.9,-224.75 350.9,-224.75 350.9,-210.75 350.9,-210.75 350.9,-204.75 356.9,-198.75 362.9,-198.75 362.9,-198.75 468.15,-198.75 468.15,-198.75 474.15,-198.75 480.15,-204.75 480.15,-210.75 480.15,-210.75 480.15,-224.75 480.15,-224.75 480.15,-230.75 474.15,-236.75 468.15,-236.75"/>
<text xml:space="preserve" text-anchor="middle" x="415.53" y="-222.3" font-family="Segoe UI" font-size="11.00" fill="#7c6f00">API Logger</text>
<text xml:space="preserve" text-anchor="middle" x="415.53" y="-207.3" font-family="Segoe UI" font-size="11.00" fill="#7c6f00">Tokens · Cost · Duration</text>
</g>
<!-- api_logger&#45;&gt;db -->
<g id="edge20" class="edge">
<title>api_logger&#45;&gt;db</title>
<path fill="none" stroke="#888888" stroke-dasharray="5,2" d="M442.19,-198.33C462.52,-184.93 491.6,-167.13 519.03,-155.25 578.26,-129.58 647.03,-108.88 704.58,-93.89"/>
<polygon fill="#888888" stroke="#888888" points="705.28,-97.33 714.1,-91.45 703.54,-90.55 705.28,-97.33"/>
<text xml:space="preserve" text-anchor="middle" x="546.78" y="-165.82" font-family="Segoe UI" font-size="9.00">api_usage_log</text>
</g>
<!-- claude&#45;&gt;user -->
<g id="edge28" class="edge">
<title>claude&#45;&gt;user</title>
<path fill="none" stroke="#c75c2e" stroke-dasharray="1,5" d="M468.94,-387.36C442.09,-400.14 409.51,-413.54 378.53,-420.75 360.22,-425.01 223.51,-416.19 209.53,-428.75 167.3,-466.69 168.08,-510.76 202.03,-556.25 225.33,-587.47 327.26,-610.54 396.23,-622.93"/>
<polygon fill="#c75c2e" stroke="#c75c2e" points="395.47,-626.35 405.93,-624.64 396.68,-619.46 395.47,-626.35"/>
<text xml:space="preserve" text-anchor="middle" x="241.78" y="-508.2" font-family="Segoe UI" font-size="9.00">Structured feedback</text>
<text xml:space="preserve" text-anchor="middle" x="241.78" y="-495.45" font-family="Segoe UI" font-size="9.00">(EN or 中文)</text>
</g>
<!-- claude&#45;&gt;api_logger -->
<g id="edge17" class="edge">
<title>claude&#45;&gt;api_logger</title>
<path fill="none" stroke="#888888" stroke-dasharray="5,2" d="M501.75,-321.57C482.45,-298.55 456.68,-267.82 438.35,-245.96"/>
<polygon fill="#888888" stroke="#888888" points="441.07,-243.76 431.96,-238.35 435.71,-248.26 441.07,-243.76"/>
<text xml:space="preserve" text-anchor="middle" x="506.1" y="-294.95" font-family="Segoe UI" font-size="9.00">log tokens</text>
<text xml:space="preserve" text-anchor="middle" x="506.1" y="-282.2" font-family="Segoe UI" font-size="9.00">&amp; cost</text>
</g>
<!-- whisper&#45;&gt;user -->
<g id="edge29" class="edge">
<title>whisper&#45;&gt;user</title>
<path fill="none" stroke="#3b7a3b" stroke-dasharray="1,5" d="M302.08,-387.26C293.04,-399.86 280.97,-413.14 266.53,-420.75 231.79,-439.06 215.99,-416.97 178.53,-428.75 137.27,-441.73 115.74,-439.6 94.03,-477 76.34,-507.46 72.94,-528.04 94.03,-556.25 129.56,-603.79 300.49,-622.66 396.22,-629.59"/>
<polygon fill="#3b7a3b" stroke="#3b7a3b" points="395.77,-633.07 405.99,-630.27 396.26,-626.08 395.77,-633.07"/>
<text xml:space="preserve" text-anchor="middle" x="133.78" y="-501.82" font-family="Segoe UI" font-size="9.00">Transcript for review</text>
</g>
<!-- whisper&#45;&gt;api_logger -->
<g id="edge18" class="edge">
<title>whisper&#45;&gt;api_logger</title>
<path fill="none" stroke="#888888" stroke-dasharray="5,2" d="M324.47,-321.52C327.34,-307.32 332.28,-290.93 340.78,-278 349.56,-264.64 362.35,-252.92 374.88,-243.52"/>
<polygon fill="#888888" stroke="#888888" points="376.55,-246.62 382.66,-237.97 372.49,-240.93 376.55,-246.62"/>
<text xml:space="preserve" text-anchor="middle" x="365.15" y="-294.95" font-family="Segoe UI" font-size="9.00">log duration</text>
<text xml:space="preserve" text-anchor="middle" x="365.15" y="-282.2" font-family="Segoe UI" font-size="9.00">&amp; cost</text>
</g>
<!-- tts&#45;&gt;user -->
<g id="edge30" class="edge">
<title>tts&#45;&gt;user</title>
<path fill="none" stroke="#3b7a3b" stroke-dasharray="1,5" d="M166.25,-368.81C118.67,-385.51 46.34,-419.19 14.03,-477 -3.16,-507.75 -5.76,-527.11 14.03,-556.25 56.1,-618.19 282.17,-630.6 395.98,-632.89"/>
<polygon fill="#3b7a3b" stroke="#3b7a3b" points="395.72,-636.38 405.78,-633.06 395.85,-629.38 395.72,-636.38"/>
<text xml:space="preserve" text-anchor="middle" x="44.78" y="-501.82" font-family="Segoe UI" font-size="9.00">Audio playback</text>
</g>
<!-- tts&#45;&gt;api_logger -->
<g id="edge19" class="edge">
<title>tts&#45;&gt;api_logger</title>
<path fill="none" stroke="#888888" stroke-dasharray="5,2" d="M239.86,-321.6C253.84,-307.09 271.54,-290.42 289.53,-278 310.04,-263.84 334.47,-251.47 356.34,-241.75"/>
<polygon fill="#888888" stroke="#888888" points="357.67,-244.99 365.45,-237.8 354.88,-238.56 357.67,-244.99"/>
<text xml:space="preserve" text-anchor="middle" x="307.53" y="-294.95" font-family="Segoe UI" font-size="9.00">log chars</text>
<text xml:space="preserve" text-anchor="middle" x="307.53" y="-282.2" font-family="Segoe UI" font-size="9.00">&amp; cost</text>
</g>
<!-- stripe -->
<g id="node15" class="node">
<title>stripe</title>
<path fill="#635bff" stroke="#e0e0e0" stroke-width="0" d="M1144.53,-660.75C1144.53,-660.75 1068.53,-660.75 1068.53,-660.75 1062.53,-660.75 1056.53,-654.75 1056.53,-648.75 1056.53,-648.75 1056.53,-619.75 1056.53,-619.75 1056.53,-613.75 1062.53,-607.75 1068.53,-607.75 1068.53,-607.75 1144.53,-607.75 1144.53,-607.75 1150.53,-607.75 1156.53,-613.75 1156.53,-619.75 1156.53,-619.75 1156.53,-648.75 1156.53,-648.75 1156.53,-654.75 1150.53,-660.75 1144.53,-660.75"/>
<text xml:space="preserve" text-anchor="middle" x="1106.53" y="-646.3" font-family="Segoe UI" font-size="11.00" fill="#ffffff">Stripe</text>
<text xml:space="preserve" text-anchor="middle" x="1106.53" y="-631.3" font-family="Segoe UI" font-size="11.00" fill="#ffffff">Pro subscriptions</text>
<text xml:space="preserve" text-anchor="middle" x="1106.53" y="-616.3" font-family="Segoe UI" font-size="11.00" fill="#ffffff">200 RMB/month</text>
</g>
<!-- stripe&#45;&gt;api_stripe -->
<g id="edge26" class="edge">
<title>stripe&#45;&gt;api_stripe</title>
<path fill="none" stroke="#635bff" stroke-width="2" d="M1106.53,-607.91C1106.53,-586.85 1106.53,-556.84 1106.53,-534.66"/>
<polygon fill="#635bff" stroke="#635bff" stroke-width="2" points="1110.03,-536.27 1106.53,-526.27 1103.03,-536.27 1110.03,-536.27"/>
<text xml:space="preserve" text-anchor="middle" x="1139.53" y="-574.83" font-family="Segoe UI" font-size="9.00">Webhook events</text>
</g>
</g>
</svg>
