<?xml version="1.0" encoding="UTF-8" standalone="no"?>
<!DOCTYPE svg PUBLIC "-//W3C//DTD SVG 1.1//EN"
 "http://www.w3.org/Graphics/SVG/1.1/DTD/svg11.dtd">
<!-- Generated by graphviz version 14.1.5 (20260411.2331)
 -->
<!-- Title: IELTSBoost Pages: 1 -->
<svg width="754pt" height="498pt"
 viewBox="0.00 0.00 754.00 498.00" xmlns="http://www.w3.org/2000/svg" xmlns:xlink="http://www.w3.org/1999/xlink">
<g id="graph0" class="graph" transform="scale(1 1) rotate(0) translate(4 494)">
<title>IELTSBoost</title>
<polygon fill="#fafafa" stroke="none" points="-4,4 -4,-494 749.75,-494 749.75,4 -4,4"/>
<text xml:space="preserve" text-anchor="middle" x="372.88" y="-471.75" font-family="Segoe UI" font-size="15.00" fill="#333333">IELTSBoost — Architecture Overview</text>
<!-- user -->
<g id="node1" class="node">
<title>user</title>
<path fill="#f0f0f0" stroke="#999999" stroke-width="1.5" d="M42,-231C42,-231 12,-231 12,-231 6,-231 0,-225 0,-219 0,-219 0,-207 0,-207 0,-201 6,-195 12,-195 12,-195 42,-195 42,-195 48,-195 54,-201 54,-207 54,-207 54,-219 54,-219 54,-225 48,-231 42,-231"/>
<text xml:space="preserve" text-anchor="middle" x="27" y="-209.65" font-family="Segoe UI" font-size="13.00" fill="#333333">User</text>
</g>
<!-- writing -->
<g id="node2" class="node">
<title>writing</title>
<path fill="#fff3e6" stroke="black" stroke-width="0" d="M201.25,-443C201.25,-443 162.75,-443 162.75,-443 156.75,-443 150.75,-437 150.75,-431 150.75,-431 150.75,-417 150.75,-417 150.75,-411 156.75,-405 162.75,-405 162.75,-405 201.25,-405 201.25,-405 207.25,-405 213.25,-411 213.25,-417 213.25,-417 213.25,-431 213.25,-431 213.25,-437 207.25,-443 201.25,-443"/>
<text xml:space="preserve" text-anchor="middle" x="182" y="-428.55" font-family="Segoe UI" font-size="11.00" fill="#8b4513">Writing</text>
<text xml:space="preserve" text-anchor="middle" x="182" y="-413.55" font-family="Segoe UI" font-size="11.00" fill="#8b4513">Feedback</text>
</g>
<!-- user&#45;&gt;writing -->
<g id="edge1" class="edge">
<title>user&#45;&gt;writing</title>
<path fill="none" stroke="#aaaaaa" d="M38.58,-231.56C57.36,-263.89 98.58,-332.04 141,-384 145.19,-389.14 149.95,-394.34 154.7,-399.23"/>
<polygon fill="#aaaaaa" stroke="#aaaaaa" points="152.9,-400.9 159.58,-404.14 156.38,-397.45 152.9,-400.9"/>
</g>
<!-- speaking -->
<g id="node3" class="node">
<title>speaking</title>
<path fill="#fff3e6" stroke="black" stroke-width="0" d="M201.25,-362C201.25,-362 162.75,-362 162.75,-362 156.75,-362 150.75,-356 150.75,-350 150.75,-350 150.75,-336 150.75,-336 150.75,-330 156.75,-324 162.75,-324 162.75,-324 201.25,-324 201.25,-324 207.25,-324 213.25,-330 213.25,-336 213.25,-336 213.25,-350 213.25,-350 213.25,-356 207.25,-362 201.25,-362"/>
<text xml:space="preserve" text-anchor="middle" x="182" y="-347.55" font-family="Segoe UI" font-size="11.00" fill="#8b4513">Speaking</text>
<text xml:space="preserve" text-anchor="middle" x="182" y="-332.55" font-family="Segoe UI" font-size="11.00" fill="#8b4513">Feedback</text>
</g>
<!-- user&#45;&gt;speaking -->
<g id="edge2" class="edge">
<title>user&#45;&gt;speaking</title>
<path fill="none" stroke="#aaaaaa" d="M49.92,-231.63C76.88,-254.54 122.72,-293.48 152.42,-318.72"/>
<polygon fill="#aaaaaa" stroke="#aaaaaa" points="150.8,-320.55 157.72,-323.22 153.97,-316.82 150.8,-320.55"/>
</g>
<!-- reading -->
<g id="node4" class="node">
<title>reading</title>
<path fill="#fff3e6" stroke="black" stroke-width="0" d="M197.88,-281C197.88,-281 166.12,-281 166.12,-281 160.12,-281 154.12,-275 154.12,-269 154.12,-269 154.12,-255 154.12,-255 154.12,-249 160.12,-243 166.12,-243 166.12,-243 197.88,-243 197.88,-243 203.88,-243 209.88,-249 209.88,-255 209.88,-255 209.88,-269 209.88,-269 209.88,-275 203.88,-281 197.88,-281"/>
<text xml:space="preserve" text-anchor="middle" x="182" y="-266.55" font-family="Segoe UI" font-size="11.00" fill="#8b4513">Reading</text>
<text xml:space="preserve" text-anchor="middle" x="182" y="-251.55" font-family="Segoe UI" font-size="11.00" fill="#8b4513">Scoring</text>
</g>
<!-- user&#45;&gt;reading -->
<g id="edge3" class="edge">
<title>user&#45;&gt;reading</title>
<path fill="none" stroke="#aaaaaa" d="M54.65,-221.54C80.05,-229.67 118.45,-241.97 146.24,-250.87"/>
<polygon fill="#aaaaaa" stroke="#aaaaaa" points="145.29,-253.13 152.7,-252.94 146.78,-248.47 145.29,-253.13"/>
</g>
<!-- ocr -->
<g id="node5" class="node">
<title>ocr</title>
<path fill="#fff3e6" stroke="black" stroke-width="0" d="M211,-200C211,-200 153,-200 153,-200 147,-200 141,-194 141,-188 141,-188 141,-174 141,-174 141,-168 147,-162 153,-162 153,-162 211,-162 211,-162 217,-162 223,-168 223,-174 223,-174 223,-188 223,-188 223,-194 217,-200 211,-200"/>
<text xml:space="preserve" text-anchor="middle" x="182" y="-185.55" font-family="Segoe UI" font-size="11.00" fill="#8b4513">OCR</text>
<text xml:space="preserve" text-anchor="middle" x="182" y="-170.55" font-family="Segoe UI" font-size="11.00" fill="#8b4513">(Handwriting)</text>
</g>
<!-- user&#45;&gt;ocr -->
<g id="edge4" class="edge">
<title>user&#45;&gt;ocr</title>
<path fill="none" stroke="#aaaaaa" d="M54.65,-207.43C76.2,-202.92 107.11,-196.45 132.96,-191.05"/>
<polygon fill="#aaaaaa" stroke="#aaaaaa" points="133.33,-193.47 139.68,-189.64 132.32,-188.68 133.33,-193.47"/>
</g>
<!-- transcribe -->
<g id="node6" class="node">
<title>transcribe</title>
<path fill="#e6f0ff" stroke="black" stroke-width="0" d="M209.12,-119C209.12,-119 154.88,-119 154.88,-119 148.88,-119 142.88,-113 142.88,-107 142.88,-107 142.88,-93 142.88,-93 142.88,-87 148.88,-81 154.88,-81 154.88,-81 209.12,-81 209.12,-81 215.12,-81 221.12,-87 221.12,-93 221.12,-93 221.12,-107 221.12,-107 221.12,-113 215.12,-119 209.12,-119"/>
<text xml:space="preserve" text-anchor="middle" x="182" y="-104.55" font-family="Segoe UI" font-size="11.00" fill="#1a4a6e">Audio</text>
<text xml:space="preserve" text-anchor="middle" x="182" y="-89.55" font-family="Segoe UI" font-size="11.00" fill="#1a4a6e">Transcription</text>
</g>
<!-- user&#45;&gt;transcribe -->
<g id="edge5" class="edge">
<title>user&#45;&gt;transcribe</title>
<path fill="none" stroke="#aaaaaa" d="M53.26,-194.34C79.43,-175.02 120.4,-144.76 148.85,-123.74"/>
<polygon fill="#aaaaaa" stroke="#aaaaaa" points="150.05,-125.9 154.22,-119.78 147.14,-121.96 150.05,-125.9"/>
</g>
<!-- tts -->
<g id="node7" class="node">
<title>tts</title>
<path fill="#e6f0ff" stroke="black" stroke-width="0" d="M197.5,-38C197.5,-38 166.5,-38 166.5,-38 160.5,-38 154.5,-32 154.5,-26 154.5,-26 154.5,-12 154.5,-12 154.5,-6 160.5,0 166.5,0 166.5,0 197.5,0 197.5,0 203.5,0 209.5,-6 209.5,-12 209.5,-12 209.5,-26 209.5,-26 209.5,-32 203.5,-38 197.5,-38"/>
<text xml:space="preserve" text-anchor="middle" x="182" y="-23.55" font-family="Segoe UI" font-size="11.00" fill="#1a4a6e">Text&#45;to&#45;</text>
<text xml:space="preserve" text-anchor="middle" x="182" y="-8.55" font-family="Segoe UI" font-size="11.00" fill="#1a4a6e">Speech</text>
</g>
<!-- user&#45;&gt;tts -->
<g id="edge6" class="edge">
<title>user&#45;&gt;tts</title>
<path fill="none" stroke="#aaaaaa" d="M40.36,-194.3C60.27,-164.6 101.26,-105.3 141,-59 145.32,-53.97 150.14,-48.81 154.9,-43.94"/>
<polygon fill="#aaaaaa" stroke="#aaaaaa" points="156.58,-45.72 159.78,-39.03 153.11,-42.27 156.58,-45.72"/>
</g>
<!-- claude -->
<g id="node8" class="node">
<title>claude</title>
<path fill="#c75c2e" stroke="black" stroke-width="0" d="M457.38,-309C457.38,-309 357.38,-309 357.38,-309 351.38,-309 345.38,-303 345.38,-297 345.38,-297 345.38,-227 345.38,-227 345.38,-221 351.38,-215 357.38,-215 357.38,-215 457.38,-215 457.38,-215 463.38,-215 469.38,-221 469.38,-227 469.38,-227 469.38,-297 469.38,-297 469.38,-303 463.38,-309 457.38,-309"/>
<text xml:space="preserve" text-anchor="middle" x="407.38" y="-294.55" font-family="Segoe UI" font-size="11.00" fill="#ffffff">Claude Sonnet 4</text>
<text xml:space="preserve" text-anchor="middle" x="407.38" y="-266.55" font-family="Segoe UI" font-size="11.00" fill="#ffffff">Writing · Speaking</text>
<text xml:space="preserve" text-anchor="middle" x="407.38" y="-251.55" font-family="Segoe UI" font-size="11.00" fill="#ffffff">Reading · OCR</text>
<text xml:space="preserve" text-anchor="middle" x="407.38" y="-223.55" font-family="Segoe UI" font-size="11.00" fill="#ffffff">$3 / $15 per M tokens</text>
</g>
<!-- writing&#45;&gt;claude -->
<g id="edge7" class="edge">
<title>writing&#45;&gt;claude</title>
<path fill="none" stroke="#c75c2e" stroke-width="1.5" d="M209.06,-405.1C240.5,-382.3 294.57,-343.09 338.16,-311.47"/>
<polygon fill="#c75c2e" stroke="#c75c2e" stroke-width="1.5" points="339.55,-313.49 343.78,-307.4 336.67,-309.52 339.55,-313.49"/>
</g>
<!-- speaking&#45;&gt;claude -->
<g id="edge8" class="edge">
<title>speaking&#45;&gt;claude</title>
<path fill="none" stroke="#c75c2e" stroke-width="1.5" d="M213.13,-332.08C244.77,-320.6 295.61,-302.17 337.2,-287.08"/>
<polygon fill="#c75c2e" stroke="#c75c2e" stroke-width="1.5" points="337.78,-289.48 343.53,-284.79 336.11,-284.87 337.78,-289.48"/>
</g>
<!-- reading&#45;&gt;claude -->
<g id="edge9" class="edge">
<title>reading&#45;&gt;claude</title>
<path fill="none" stroke="#c75c2e" d="M209.5,-262C240.7,-262 293.75,-262 336.92,-262"/>
<polygon fill="#c75c2e" stroke="#c75c2e" points="336.9,-264.45 343.9,-262 336.9,-259.55 336.9,-264.45"/>
<text xml:space="preserve" text-anchor="middle" x="278.38" y="-278.95" font-family="Segoe UI" font-size="9.00" fill="#c75c2e">fill&#45;ins</text>
<text xml:space="preserve" text-anchor="middle" x="278.38" y="-266.2" font-family="Segoe UI" font-size="9.00" fill="#c75c2e">only</text>
</g>
<!-- ocr&#45;&gt;claude -->
<g id="edge10" class="edge">
<title>ocr&#45;&gt;claude</title>
<path fill="none" stroke="#c75c2e" stroke-width="1.5" d="M222.93,-195.48C254.67,-206.99 299.8,-223.35 337.36,-236.97"/>
<polygon fill="#c75c2e" stroke="#c75c2e" stroke-width="1.5" points="336.19,-239.16 343.61,-239.24 337.86,-234.55 336.19,-239.16"/>
</g>
<!-- openai -->
<g id="node9" class="node">
<title>openai</title>
<path fill="#3b7a3b" stroke="black" stroke-width="0" d="M469,-147C469,-147 345.75,-147 345.75,-147 339.75,-147 333.75,-141 333.75,-135 333.75,-135 333.75,-65 333.75,-65 333.75,-59 339.75,-53 345.75,-53 345.75,-53 469,-53 469,-53 475,-53 481,-59 481,-65 481,-65 481,-135 481,-135 481,-141 475,-147 469,-147"/>
<text xml:space="preserve" text-anchor="middle" x="407.38" y="-132.55" font-family="Segoe UI" font-size="11.00" fill="#ffffff">OpenAI</text>
<text xml:space="preserve" text-anchor="middle" x="407.38" y="-104.55" font-family="Segoe UI" font-size="11.00" fill="#ffffff">Whisper&#45;1 (STT)</text>
<text xml:space="preserve" text-anchor="middle" x="407.38" y="-89.55" font-family="Segoe UI" font-size="11.00" fill="#ffffff">TTS&#45;1 Nova</text>
<text xml:space="preserve" text-anchor="middle" x="407.38" y="-61.55" font-family="Segoe UI" font-size="11.00" fill="#ffffff">~$0.006/min · $15/M chars</text>
</g>
<!-- transcribe&#45;&gt;openai -->
<g id="edge11" class="edge">
<title>transcribe&#45;&gt;openai</title>
<path fill="none" stroke="#3b7a3b" stroke-width="1.5" d="M220.89,-100C249.35,-100 289.38,-100 324.97,-100"/>
<polygon fill="#3b7a3b" stroke="#3b7a3b" stroke-width="1.5" points="324.64,-102.45 331.64,-100 324.64,-97.55 324.64,-102.45"/>
</g>
<!-- tts&#45;&gt;openai -->
<g id="edge12" class="edge">
<title>tts&#45;&gt;openai</title>
<path fill="none" stroke="#3b7a3b" stroke-width="1.5" d="M209.06,-28.45C237.53,-38.77 284.56,-55.83 325.56,-70.7"/>
<polygon fill="#3b7a3b" stroke="#3b7a3b" stroke-width="1.5" points="324.66,-72.98 332.08,-73.06 326.33,-68.37 324.66,-72.98"/>
</g>
<!-- supabase -->
<g id="node10" class="node">
<title>supabase</title>
<path fill="#1a8a4e" stroke="black" stroke-width="0" d="M733.75,-213C733.75,-213 626.25,-213 626.25,-213 620.25,-213 614.25,-207 614.25,-201 614.25,-201 614.25,-159 614.25,-159 614.25,-153 620.25,-147 626.25,-147 626.25,-147 733.75,-147 733.75,-147 739.75,-147 745.75,-153 745.75,-159 745.75,-159 745.75,-201 745.75,-201 745.75,-207 739.75,-213 733.75,-213"/>
<text xml:space="preserve" text-anchor="middle" x="680" y="-198.55" font-family="Segoe UI" font-size="11.00" fill="#ffffff">Supabase</text>
<text xml:space="preserve" text-anchor="middle" x="680" y="-170.55" font-family="Segoe UI" font-size="11.00" fill="#ffffff">Submissions · Feedback</text>
<text xml:space="preserve" text-anchor="middle" x="680" y="-155.55" font-family="Segoe UI" font-size="11.00" fill="#ffffff">Usage · Auth · Files</text>
</g>
<!-- claude&#45;&gt;supabase -->
<g id="edge13" class="edge">
<title>claude&#45;&gt;supabase</title>
<path fill="none" stroke="#aaaaaa" stroke-dasharray="5,2" d="M469.11,-243.6C509.89,-231.24 563.82,-214.9 606.8,-201.88"/>
<polygon fill="#aaaaaa" stroke="#aaaaaa" points="607.26,-204.3 613.25,-199.92 605.84,-199.61 607.26,-204.3"/>
<text xml:space="preserve" text-anchor="middle" x="547.62" y="-230.11" font-family="Segoe UI" font-size="9.00">store results</text>
</g>
<!-- openai&#45;&gt;supabase -->
<g id="edge14" class="edge">
<title>openai&#45;&gt;supabase</title>
<path fill="none" stroke="#aaaaaa" stroke-dasharray="5,2" d="M480.9,-121.44C519.78,-132.93 567.55,-147.05 606.44,-158.55"/>
<polygon fill="#aaaaaa" stroke="#aaaaaa" points="605.73,-160.9 613.14,-160.53 607.12,-156.2 605.73,-160.9"/>
<text xml:space="preserve" text-anchor="middle" x="547.62" y="-151.37" font-family="Segoe UI" font-size="9.00">store drafts</text>
</g>
<!-- stripe -->
<g id="node11" class="node">
<title>stripe</title>
<path fill="#635bff" stroke="black" stroke-width="0" d="M719.12,-365C719.12,-365 640.88,-365 640.88,-365 634.88,-365 628.88,-359 628.88,-353 628.88,-353 628.88,-311 628.88,-311 628.88,-305 634.88,-299 640.88,-299 640.88,-299 719.12,-299 719.12,-299 725.12,-299 731.12,-305 731.12,-311 731.12,-311 731.12,-353 731.12,-353 731.12,-359 725.12,-365 719.12,-365"/>
<text xml:space="preserve" text-anchor="middle" x="680" y="-350.55" font-family="Segoe UI" font-size="11.00" fill="#ffffff">Stripe</text>
<text xml:space="preserve" text-anchor="middle" x="680" y="-322.55" font-family="Segoe UI" font-size="11.00" fill="#ffffff">Pro: 200 RMB/mo</text>
<text xml:space="preserve" text-anchor="middle" x="680" y="-307.55" font-family="Segoe UI" font-size="11.00" fill="#ffffff">Free: 3/day limit</text>
</g>
<!-- stripe&#45;&gt;supabase -->
<g id="edge15" class="edge">
<title>stripe&#45;&gt;supabase</title>
<path fill="none" stroke="#aaaaaa" stroke-dasharray="5,2" d="M680,-299.08C680,-276.29 680,-245.78 680,-221.35"/>
<polygon fill="#aaaaaa" stroke="#aaaaaa" points="682.45,-221.5 680,-214.5 677.55,-221.5 682.45,-221.5"/>
<text xml:space="preserve" text-anchor="middle" x="670.62" y="-253.82" font-family="Segoe UI" font-size="9.00">plan status</text>
</g>
</g>
</svg>
